# xmcd
#
# Track frame offsets: 
#        150
#        14965
#        37180
#        59010
#        76332
#        92542
#        111632
#        130152
#        144330
#        158782
#        178100
#        190462
#
# Disc length: 2750 seconds
#
# Revision: 2
# Processed by: cddbd v1.5.1PL0 Copyright (c) Steve Scherf et al.
# Submitted via: ExactAudioCopy v0.95a5
#
DISCID=b10abc0c
DTITLE=Magic Sam - West Side Soul
DYEAR=1967
DGENRE=Blues
TTITLE0=That's All I Need
TTITLE1=I Need You So Bad
TTITLE2=I Feel So Good (I Wanna Boogie)
TTITLE3=All Of Your Love
TTITLE4=I Don't Want No Woman
TTITLE5=Sweet Home Chicago
TTITLE6=I Found A New Love
TTITLE7=Every Night And Every Day
TTITLE8=Lookin' Good (Instrumental)
TTITLE9=My Love Will Never Die
TTITLE10=Mama, Mama -Talk To Your Daughter
TTITLE11=I Don't Want No Woman (Alt.)
EXTD=
EXTT0=
EXTT1=
EXTT2=
EXTT3=
EXTT4=
EXTT5=
EXTT6=
EXTT7=
EXTT8=
EXTT9=
EXTT10=
EXTT11=
PLAYORDER=
